solid OpenSCAD_Model
  facet normal -1 0 0
    outer loop
      vertex -1 -1 0
      vertex -1 4 1
      vertex -1 4 0
    endloop
  endfacet
  facet normal -1 -0 0
    outer loop
      vertex -1 4 1
      vertex -1 -1 0
      vertex -1 -1 1
    endloop
  endfacet
  facet normal -0 0 1
    outer loop
      vertex 1 2.5 1
      vertex 3.75 2.25 1
      vertex 3.75 2.5 1
    endloop
  endfacet
  facet normal 0 0 1
    outer loop
      vertex 3.75 2.25 1
      vertex 1 2.5 1
      vertex 1 2.25 1
    endloop
  endfacet
  facet normal 0 0 1
    outer loop
      vertex 3.75 2.5 1
      vertex 4 4 1
      vertex 3.75 3.75 1
    endloop
  endfacet
  facet normal 0 0 1
    outer loop
      vertex 4 4 1
      vertex -0.75 3.75 1
      vertex 3.75 3.75 1
    endloop
  endfacet
  facet normal 0 0 1
    outer loop
      vertex -1 4 1
      vertex -0.75 1 1
      vertex -0.75 3.75 1
    endloop
  endfacet
  facet normal 0 0 1
    outer loop
      vertex -1 -1 1
      vertex -0.75 1 1
      vertex -1 4 1
    endloop
  endfacet
  facet normal 0 0 1
    outer loop
      vertex -0.75 1 1
      vertex -1 -1 1
      vertex -0.75 0.75 1
    endloop
  endfacet
  facet normal -0 0 1
    outer loop
      vertex -1 4 1
      vertex -0.75 3.75 1
      vertex 4 4 1
    endloop
  endfacet
  facet normal 0 0 1
    outer loop
      vertex 3.75 2.25 1
      vertex 4 4 1
      vertex 3.75 2.5 1
    endloop
  endfacet
  facet normal 0 0 1
    outer loop
      vertex 4 4 1
      vertex 3.75 2.25 1
      vertex 4 -1 1
    endloop
  endfacet
  facet normal -0 0 1
    outer loop
      vertex 3.75 -0.75 1
      vertex 4 -1 1
      vertex 3.75 2.25 1
    endloop
  endfacet
  facet normal -0 0 1
    outer loop
      vertex -0.75 -0.75 1
      vertex 4 -1 1
      vertex 3.75 -0.75 1
    endloop
  endfacet
  facet normal 0 0 1
    outer loop
      vertex -0.75 -0.75 1
      vertex -1 -1 1
      vertex 4 -1 1
    endloop
  endfacet
  facet normal 0 0 1
    outer loop
      vertex -0.75 0.75 1
      vertex -1 -1 1
      vertex -0.75 -0.75 1
    endloop
  endfacet
  facet normal -0 0 1
    outer loop
      vertex -0.75 1 1
      vertex 2 0.75 1
      vertex 2 1 1
    endloop
  endfacet
  facet normal 0 0 1
    outer loop
      vertex 2 0.75 1
      vertex -0.75 1 1
      vertex -0.75 0.75 1
    endloop
  endfacet
  facet normal 1 -0 0
    outer loop
      vertex 4 -1 1
      vertex 4 4 0
      vertex 4 4 1
    endloop
  endfacet
  facet normal 1 0 0
    outer loop
      vertex 4 4 0
      vertex 4 -1 1
      vertex 4 -1 0
    endloop
  endfacet
  facet normal 0 1 -0
    outer loop
      vertex 4 4 0
      vertex -1 4 1
      vertex 4 4 1
    endloop
  endfacet
  facet normal 0 1 0
    outer loop
      vertex -1 4 1
      vertex 4 4 0
      vertex -1 4 0
    endloop
  endfacet
  facet normal 0 0 -1
    outer loop
      vertex 1 2.25 0
      vertex 3.75 2.5 0
      vertex 3.75 2.25 0
    endloop
  endfacet
  facet normal -0 0 -1
    outer loop
      vertex 3.75 2.5 0
      vertex 1 2.25 0
      vertex 1 2.5 0
    endloop
  endfacet
  facet normal 0 0 -1
    outer loop
      vertex 3.75 2.25 0
      vertex 4 -1 0
      vertex 3.75 -0.75 0
    endloop
  endfacet
  facet normal 0 0 -1
    outer loop
      vertex 4 -1 0
      vertex -0.75 -0.75 0
      vertex 3.75 -0.75 0
    endloop
  endfacet
  facet normal 0 0 -1
    outer loop
      vertex -1 -1 0
      vertex -0.75 0.75 0
      vertex -0.75 -0.75 0
    endloop
  endfacet
  facet normal -0 0 -1
    outer loop
      vertex -0.75 0.75 0
      vertex -1 -1 0
      vertex -0.75 1 0
    endloop
  endfacet
  facet normal 0 0 -1
    outer loop
      vertex -1 4 0
      vertex -0.75 1 0
      vertex -1 -1 0
    endloop
  endfacet
  facet normal 0 0 -1
    outer loop
      vertex -1 -1 0
      vertex -0.75 -0.75 0
      vertex 4 -1 0
    endloop
  endfacet
  facet normal 0 0 -1
    outer loop
      vertex 4 -1 0
      vertex 3.75 2.25 0
      vertex 4 4 0
    endloop
  endfacet
  facet normal 0 0 -1
    outer loop
      vertex 3.75 2.5 0
      vertex 4 4 0
      vertex 3.75 2.25 0
    endloop
  endfacet
  facet normal 0 0 -1
    outer loop
      vertex 3.75 3.75 0
      vertex 4 4 0
      vertex 3.75 2.5 0
    endloop
  endfacet
  facet normal 0 0 -1
    outer loop
      vertex -0.75 3.75 0
      vertex 4 4 0
      vertex 3.75 3.75 0
    endloop
  endfacet
  facet normal 0 0 -1
    outer loop
      vertex -0.75 3.75 0
      vertex -1 4 0
      vertex 4 4 0
    endloop
  endfacet
  facet normal 0 0 -1
    outer loop
      vertex -0.75 1 0
      vertex -1 4 0
      vertex -0.75 3.75 0
    endloop
  endfacet
  facet normal 0 0 -1
    outer loop
      vertex -0.75 0.75 0
      vertex 2 1 0
      vertex 2 0.75 0
    endloop
  endfacet
  facet normal -0 0 -1
    outer loop
      vertex 2 1 0
      vertex -0.75 0.75 0
      vertex -0.75 1 0
    endloop
  endfacet
  facet normal 0 -1 0
    outer loop
      vertex -1 -1 0
      vertex 4 -1 1
      vertex -1 -1 1
    endloop
  endfacet
  facet normal 0 -1 -0
    outer loop
      vertex 4 -1 1
      vertex -1 -1 0
      vertex 4 -1 0
    endloop
  endfacet
  facet normal 1 -0 0
    outer loop
      vertex -0.75 -0.75 1
      vertex -0.75 0.75 0
      vertex -0.75 0.75 1
    endloop
  endfacet
  facet normal 1 0 0
    outer loop
      vertex -0.75 0.75 0
      vertex -0.75 -0.75 1
      vertex -0.75 -0.75 0
    endloop
  endfacet
  facet normal 1 -0 0
    outer loop
      vertex -0.75 1 1
      vertex -0.75 3.75 0
      vertex -0.75 3.75 1
    endloop
  endfacet
  facet normal 1 0 0
    outer loop
      vertex -0.75 3.75 0
      vertex -0.75 1 1
      vertex -0.75 1 0
    endloop
  endfacet
  facet normal -1 0 0
    outer loop
      vertex 3.75 -0.75 0
      vertex 3.75 2.25 1
      vertex 3.75 2.25 0
    endloop
  endfacet
  facet normal -1 -0 0
    outer loop
      vertex 3.75 2.25 1
      vertex 3.75 -0.75 0
      vertex 3.75 -0.75 1
    endloop
  endfacet
  facet normal -1 0 0
    outer loop
      vertex 3.75 2.5 0
      vertex 3.75 3.75 1
      vertex 3.75 3.75 0
    endloop
  endfacet
  facet normal -1 -0 0
    outer loop
      vertex 3.75 3.75 1
      vertex 3.75 2.5 0
      vertex 3.75 2.5 1
    endloop
  endfacet
  facet normal 0 1 -0
    outer loop
      vertex 3.75 -0.75 0
      vertex -0.75 -0.75 1
      vertex 3.75 -0.75 1
    endloop
  endfacet
  facet normal 0 1 0
    outer loop
      vertex -0.75 -0.75 1
      vertex 3.75 -0.75 0
      vertex -0.75 -0.75 0
    endloop
  endfacet
  facet normal 0 -1 0
    outer loop
      vertex -0.75 3.75 0
      vertex 3.75 3.75 1
      vertex -0.75 3.75 1
    endloop
  endfacet
  facet normal 0 -1 -0
    outer loop
      vertex 3.75 3.75 1
      vertex -0.75 3.75 0
      vertex 3.75 3.75 0
    endloop
  endfacet
  facet normal 1 -0 0
    outer loop
      vertex 2 0.75 1
      vertex 2 1 0
      vertex 2 1 1
    endloop
  endfacet
  facet normal 1 0 0
    outer loop
      vertex 2 1 0
      vertex 2 0.75 1
      vertex 2 0.75 0
    endloop
  endfacet
  facet normal 0 -1 0
    outer loop
      vertex -0.75 0.75 0
      vertex 2 0.75 1
      vertex -0.75 0.75 1
    endloop
  endfacet
  facet normal 0 -1 -0
    outer loop
      vertex 2 0.75 1
      vertex -0.75 0.75 0
      vertex 2 0.75 0
    endloop
  endfacet
  facet normal 0 1 -0
    outer loop
      vertex 2 1 0
      vertex -0.75 1 1
      vertex 2 1 1
    endloop
  endfacet
  facet normal 0 1 0
    outer loop
      vertex -0.75 1 1
      vertex 2 1 0
      vertex -0.75 1 0
    endloop
  endfacet
  facet normal -1 0 0
    outer loop
      vertex 1 2.25 0
      vertex 1 2.5 1
      vertex 1 2.5 0
    endloop
  endfacet
  facet normal -1 -0 0
    outer loop
      vertex 1 2.5 1
      vertex 1 2.25 0
      vertex 1 2.25 1
    endloop
  endfacet
  facet normal 0 1 -0
    outer loop
      vertex 3.75 2.5 0
      vertex 1 2.5 1
      vertex 3.75 2.5 1
    endloop
  endfacet
  facet normal 0 1 0
    outer loop
      vertex 1 2.5 1
      vertex 3.75 2.5 0
      vertex 1 2.5 0
    endloop
  endfacet
  facet normal 0 -1 0
    outer loop
      vertex 1 2.25 0
      vertex 3.75 2.25 1
      vertex 1 2.25 1
    endloop
  endfacet
  facet normal 0 -1 -0
    outer loop
      vertex 3.75 2.25 1
      vertex 1 2.25 0
      vertex 3.75 2.25 0
    endloop
  endfacet
endsolid OpenSCAD_Model
